
<svg width="402" height="532" viewBox="0 0 402 532" fill="none" xmlns="http://www.w3.org/2000/svg">
<g clip-path="url(#clip0_157_1048)">
<path d="M201 531.533C433.254 531.533 621.533 343.254 621.533 111C621.533 -121.254 433.254 -309.533 201 -309.533C-31.2538 -309.533 -219.533 -121.254 -219.533 111C-219.533 343.254 -31.2538 531.533 201 531.533Z" stroke="url(#paint0_linear_157_1048)" stroke-opacity="0.1" stroke-width="2.5" stroke-miterlimit="10"/>
<path d="M201 515.281C424.279 515.281 605.282 334.279 605.282 111C605.282 -112.279 424.279 -293.281 201 -293.281C-22.2783 -293.281 -203.281 -112.279 -203.281 111C-203.281 334.279 -22.2783 515.281 201 515.281Z" stroke="url(#paint1_linear_157_1048)" stroke-opacity="0.1" stroke-width="2.5" stroke-miterlimit="10"/>
<path d="M201 499.026C415.301 499.026 589.026 325.301 589.026 111C589.026 -103.301 415.301 -277.026 201 -277.026C-13.3004 -277.026 -187.025 -103.301 -187.025 111C-187.025 325.301 -13.3004 499.026 201 499.026Z" stroke="url(#paint2_linear_157_1048)" stroke-opacity="0.1" stroke-width="2.5" stroke-miterlimit="10"/>
<path d="M201 482.774C406.325 482.774 572.774 316.325 572.774 111C572.774 -94.3253 406.325 -260.774 201 -260.774C-4.32538 -260.774 -170.774 -94.3253 -170.774 111C-170.774 316.325 -4.32538 482.774 201 482.774Z" stroke="url(#paint3_linear_157_1048)" stroke-opacity="0.1" stroke-width="2.5" stroke-miterlimit="10"/>
<path d="M201 466.523C397.35 466.523 556.523 307.35 556.523 111C556.523 -85.35 397.35 -244.523 201 -244.523C4.65015 -244.523 -154.523 -85.35 -154.523 111C-154.523 307.35 4.65015 466.523 201 466.523Z" stroke="url(#paint4_linear_157_1048)" stroke-opacity="0.1" stroke-width="2.5" stroke-miterlimit="10"/>
<path d="M201 450.272C388.374 450.272 540.272 298.375 540.272 111C540.272 -76.3746 388.374 -228.272 201 -228.272C13.6252 -228.272 -138.272 -76.3746 -138.272 111C-138.272 298.375 13.6252 450.272 201 450.272Z" stroke="url(#paint5_linear_157_1048)" stroke-opacity="0.1" stroke-width="2.5" stroke-miterlimit="10"/>
<path d="M201 434.016C379.397 434.016 524.016 289.397 524.016 111C524.016 -67.3967 379.397 -212.016 201 -212.016C22.6035 -212.016 -122.016 -67.3967 -122.016 111C-122.016 289.397 22.6035 434.016 201 434.016Z" stroke="url(#paint6_linear_157_1048)" stroke-opacity="0.1" stroke-width="2.5" stroke-miterlimit="10"/>
<path d="M201 417.765C370.421 417.765 507.765 280.421 507.765 111C507.765 -58.4214 370.421 -195.765 201 -195.765C31.5786 -195.765 -105.765 -58.4214 -105.765 111C-105.765 280.421 31.5786 417.765 201 417.765Z" stroke="url(#paint7_linear_157_1048)" stroke-opacity="0.1" stroke-width="2.5" stroke-miterlimit="10"/>
<path d="M201 401.513C361.446 401.513 491.514 271.446 491.514 111C491.514 -49.4461 361.446 -179.513 201 -179.513C40.5541 -179.513 -89.5132 -49.4461 -89.5132 111C-89.5132 271.446 40.5541 401.513 201 401.513Z" stroke="url(#paint8_linear_157_1048)" stroke-opacity="0.1" stroke-width="2.5" stroke-miterlimit="10"/>
<path d="M201 385.262C352.471 385.262 475.262 262.471 475.262 111C475.262 -40.4708 352.471 -163.262 201 -163.262C49.5291 -163.262 -73.2622 -40.4708 -73.2622 111C-73.2622 262.471 49.5291 385.262 201 385.262Z" stroke="url(#paint9_linear_157_1048)" stroke-opacity="0.1" stroke-width="2.5" stroke-miterlimit="10"/>
<path d="M201 369.006C343.493 369.006 459.006 253.493 459.006 111C459.006 -31.4928 343.493 -147.006 201 -147.006C58.507 -147.006 -57.0063 -31.4928 -57.0063 111C-57.0063 253.493 58.507 369.006 201 369.006Z" stroke="url(#paint10_linear_157_1048)" stroke-opacity="0.1" stroke-width="2.5" stroke-miterlimit="10"/>
<path d="M201 352.755C334.518 352.755 442.755 244.518 442.755 111C442.755 -22.5175 334.518 -130.755 201 -130.755C67.4825 -130.755 -40.7549 -22.5175 -40.7549 111C-40.7549 244.518 67.4825 352.755 201 352.755Z" stroke="url(#paint11_linear_157_1048)" stroke-opacity="0.1" stroke-width="2.5" stroke-miterlimit="10"/>
<path d="M201 336.504C325.542 336.504 426.504 235.542 426.504 111C426.504 -13.5422 325.542 -114.504 201 -114.504C76.458 -114.504 -24.5034 -13.5422 -24.5034 111C-24.5034 235.542 76.458 336.504 201 336.504Z" stroke="url(#paint12_linear_157_1048)" stroke-opacity="0.1" stroke-width="2.5" stroke-miterlimit="10"/>
<path d="M201 320.252C316.567 320.252 410.252 226.567 410.252 111C410.252 -4.56689 316.567 -98.2524 201 -98.2524C85.4331 -98.2524 -8.25244 -4.56689 -8.25244 111C-8.25244 226.567 85.4331 320.252 201 320.252Z" stroke="url(#paint13_linear_157_1048)" stroke-opacity="0.1" stroke-width="2.5" stroke-miterlimit="10"/>
<path d="M201 303.997C307.589 303.997 393.996 217.589 393.996 111C393.996 4.41102 307.589 -81.9965 201 -81.9965C94.4109 -81.9965 8.00342 4.41102 8.00342 111C8.00342 217.589 94.4109 303.997 201 303.997Z" stroke="url(#paint14_linear_157_1048)" stroke-opacity="0.1" stroke-width="2.5" stroke-miterlimit="10"/>
<path d="M201 287.745C298.614 287.745 377.745 208.614 377.745 111C377.745 13.3863 298.614 -65.7452 201 -65.7452C103.386 -65.7452 24.2549 13.3863 24.2549 111C24.2549 208.614 103.386 287.745 201 287.745Z" stroke="url(#paint15_linear_157_1048)" stroke-opacity="0.1" stroke-width="2.5" stroke-miterlimit="10"/>
<path d="M201 271.494C289.638 271.494 361.494 199.638 361.494 111C361.494 22.3616 289.638 -49.494 201 -49.494C112.361 -49.494 40.5059 22.3616 40.5059 111C40.5059 199.638 112.361 271.494 201 271.494Z" stroke="url(#paint16_linear_157_1048)" stroke-opacity="0.1" stroke-width="2.5" stroke-miterlimit="10"/>
<path d="M201 255.243C280.663 255.243 345.243 190.663 345.243 111C345.243 31.337 280.663 -33.2427 201 -33.2427C121.337 -33.2427 56.7573 31.337 56.7573 111C56.7573 190.663 121.337 255.243 201 255.243Z" stroke="url(#paint17_linear_157_1048)" stroke-opacity="0.1" stroke-width="2.5" stroke-miterlimit="10"/>
<path d="M201 238.987C271.685 238.987 328.987 181.685 328.987 111C328.987 40.3149 271.685 -16.9868 201 -16.9868C130.315 -16.9868 73.0132 40.3149 73.0132 111C73.0132 181.685 130.315 238.987 201 238.987Z" stroke="url(#paint18_linear_157_1048)" stroke-opacity="0.1" stroke-width="2.5" stroke-miterlimit="10"/>
<path d="M201 222.736C262.71 222.736 312.736 172.71 312.736 111C312.736 49.2902 262.71 -0.735474 201 -0.735474C139.29 -0.735474 89.2646 49.2902 89.2646 111C89.2646 172.71 139.29 222.736 201 222.736Z" stroke="url(#paint19_linear_157_1048)" stroke-opacity="0.1" stroke-width="2.5" stroke-miterlimit="10"/>
<path d="M201 206.484C253.734 206.484 296.484 163.735 296.484 111C296.484 58.2655 253.734 15.5157 201 15.5157C148.265 15.5157 105.516 58.2655 105.516 111C105.516 163.735 148.265 206.484 201 206.484Z" stroke="url(#paint20_linear_157_1048)" stroke-opacity="0.1" stroke-width="2.5" stroke-miterlimit="10"/>
<path d="M201 190.233C244.759 190.233 280.233 154.759 280.233 111C280.233 67.2408 244.759 31.767 201 31.767C157.241 31.767 121.767 67.2408 121.767 111C121.767 154.759 157.241 190.233 201 190.233Z" stroke="url(#paint21_linear_157_1048)" stroke-opacity="0.1" stroke-width="2.5" stroke-miterlimit="10"/>
<path d="M201 173.977C235.781 173.977 263.977 145.781 263.977 111C263.977 76.2187 235.781 48.0229 201 48.0229C166.219 48.0229 138.023 76.2187 138.023 111C138.023 145.781 166.219 173.977 201 173.977Z" stroke="url(#paint22_linear_157_1048)" stroke-opacity="0.1" stroke-width="2.5" stroke-miterlimit="10"/>
<path d="M201 157.726C226.806 157.726 247.726 136.806 247.726 111C247.726 85.194 226.806 64.2742 201 64.2742C175.194 64.2742 154.274 85.194 154.274 111C154.274 136.806 175.194 157.726 201 157.726Z" stroke="url(#paint23_linear_157_1048)" stroke-opacity="0.1" stroke-width="2.5" stroke-miterlimit="10"/>
</g>
<defs>
<linearGradient id="paint0_linear_157_1048" x1="201" y1="-309.533" x2="201" y2="531.533" gradientUnits="userSpaceOnUse">
<stop stop-color="#C87121"/>
<stop offset="1" stop-color="#C87121" stop-opacity="0"/>
</linearGradient>
<linearGradient id="paint1_linear_157_1048" x1="201" y1="-293.281" x2="201" y2="515.281" gradientUnits="userSpaceOnUse">
<stop stop-color="#C87121"/>
<stop offset="1" stop-color="#C87121" stop-opacity="0"/>
</linearGradient>
<linearGradient id="paint2_linear_157_1048" x1="201" y1="-277.026" x2="201" y2="499.026" gradientUnits="userSpaceOnUse">
<stop stop-color="#C87121"/>
<stop offset="1" stop-color="#C87121" stop-opacity="0"/>
</linearGradient>
<linearGradient id="paint3_linear_157_1048" x1="201" y1="-260.774" x2="201" y2="482.774" gradientUnits="userSpaceOnUse">
<stop stop-color="#C87121"/>
<stop offset="1" stop-color="#C87121" stop-opacity="0"/>
</linearGradient>
<linearGradient id="paint4_linear_157_1048" x1="201" y1="-244.523" x2="201" y2="466.523" gradientUnits="userSpaceOnUse">
<stop stop-color="#C87121"/>
<stop offset="1" stop-color="#C87121" stop-opacity="0"/>
</linearGradient>
<linearGradient id="paint5_linear_157_1048" x1="201" y1="-228.272" x2="201" y2="450.272" gradientUnits="userSpaceOnUse">
<stop stop-color="#C87121"/>
<stop offset="1" stop-color="#C87121" stop-opacity="0"/>
</linearGradient>
<linearGradient id="paint6_linear_157_1048" x1="201" y1="-212.016" x2="201" y2="434.016" gradientUnits="userSpaceOnUse">
<stop stop-color="#C87121"/>
<stop offset="1" stop-color="#C87121" stop-opacity="0"/>
</linearGradient>
<linearGradient id="paint7_linear_157_1048" x1="201" y1="-195.765" x2="201" y2="417.765" gradientUnits="userSpaceOnUse">
<stop stop-color="#C87121"/>
<stop offset="1" stop-color="#C87121" stop-opacity="0"/>
</linearGradient>
<linearGradient id="paint8_linear_157_1048" x1="201" y1="-179.513" x2="201" y2="401.513" gradientUnits="userSpaceOnUse">
<stop stop-color="#C87121"/>
<stop offset="1" stop-color="#C87121" stop-opacity="0"/>
</linearGradient>
<linearGradient id="paint9_linear_157_1048" x1="201" y1="-163.262" x2="201" y2="385.262" gradientUnits="userSpaceOnUse">
<stop stop-color="#C87121"/>
<stop offset="1" stop-color="#C87121" stop-opacity="0"/>
</linearGradient>
<linearGradient id="paint10_linear_157_1048" x1="201" y1="-147.006" x2="201" y2="369.006" gradientUnits="userSpaceOnUse">
<stop stop-color="#C87121"/>
<stop offset="1" stop-color="#C87121" stop-opacity="0"/>
</linearGradient>
<linearGradient id="paint11_linear_157_1048" x1="201" y1="-130.755" x2="201" y2="352.755" gradientUnits="userSpaceOnUse">
<stop stop-color="#C87121"/>
<stop offset="1" stop-color="#C87121" stop-opacity="0"/>
</linearGradient>
<linearGradient id="paint12_linear_157_1048" x1="201" y1="-114.504" x2="201" y2="336.504" gradientUnits="userSpaceOnUse">
<stop stop-color="#C87121"/>
<stop offset="1" stop-color="#C87121" stop-opacity="0"/>
</linearGradient>
<linearGradient id="paint13_linear_157_1048" x1="201" y1="-98.2524" x2="201" y2="320.252" gradientUnits="userSpaceOnUse">
<stop stop-color="#C87121"/>
<stop offset="1" stop-color="#C87121" stop-opacity="0"/>
</linearGradient>
<linearGradient id="paint14_linear_157_1048" x1="201" y1="-81.9965" x2="201" y2="303.997" gradientUnits="userSpaceOnUse">
<stop stop-color="#C87121"/>
<stop offset="1" stop-color="#C87121" stop-opacity="0"/>
</linearGradient>
<linearGradient id="paint15_linear_157_1048" x1="201" y1="-65.7452" x2="201" y2="287.745" gradientUnits="userSpaceOnUse">
<stop stop-color="#C87121"/>
<stop offset="1" stop-color="#C87121" stop-opacity="0"/>
</linearGradient>
<linearGradient id="paint16_linear_157_1048" x1="201" y1="-49.494" x2="201" y2="271.494" gradientUnits="userSpaceOnUse">
<stop stop-color="#C87121"/>
<stop offset="1" stop-color="#C87121" stop-opacity="0"/>
</linearGradient>
<linearGradient id="paint17_linear_157_1048" x1="201" y1="-33.2427" x2="201" y2="255.243" gradientUnits="userSpaceOnUse">
<stop stop-color="#C87121"/>
<stop offset="1" stop-color="#C87121" stop-opacity="0"/>
</linearGradient>
<linearGradient id="paint18_linear_157_1048" x1="201" y1="-16.9868" x2="201" y2="238.987" gradientUnits="userSpaceOnUse">
<stop stop-color="#C87121"/>
<stop offset="1" stop-color="#C87121" stop-opacity="0"/>
</linearGradient>
<linearGradient id="paint19_linear_157_1048" x1="201" y1="-0.735474" x2="201" y2="222.736" gradientUnits="userSpaceOnUse">
<stop stop-color="#C87121"/>
<stop offset="1" stop-color="#C87121" stop-opacity="0"/>
</linearGradient>
<linearGradient id="paint20_linear_157_1048" x1="201" y1="15.5157" x2="201" y2="206.484" gradientUnits="userSpaceOnUse">
<stop stop-color="#C87121"/>
<stop offset="1" stop-color="#C87121" stop-opacity="0"/>
</linearGradient>
<linearGradient id="paint21_linear_157_1048" x1="201" y1="31.767" x2="201" y2="190.233" gradientUnits="userSpaceOnUse">
<stop stop-color="#C87121"/>
<stop offset="1" stop-color="#C87121" stop-opacity="0"/>
</linearGradient>
<linearGradient id="paint22_linear_157_1048" x1="201" y1="48.0229" x2="201" y2="173.977" gradientUnits="userSpaceOnUse">
<stop stop-color="#C87121"/>
<stop offset="1" stop-color="#C87121" stop-opacity="0"/>
</linearGradient>
<linearGradient id="paint23_linear_157_1048" x1="201" y1="64.2742" x2="201" y2="157.726" gradientUnits="userSpaceOnUse">
<stop stop-color="#C87121"/>
<stop offset="1" stop-color="#C87121" stop-opacity="0"/>
</linearGradient>
<clipPath id="clip0_157_1048">
<rect width="842" height="842" fill="white" transform="translate(-220 -310)"/>
</clipPath>
</defs>
</svg>
