<svg width="40" height="40" viewBox="0 0 40 40" fill="none" xmlns="http://www.w3.org/2000/svg">
<path d="M33.7501 23.5833V30.6667C33.7501 32.49 32.4384 34.06 30.6301 34.3C27.1518 34.7617 23.6034 35 20.0001 35C16.3968 35 12.8484 34.7617 9.37009 34.3C7.56176 34.06 6.25009 32.49 6.25009 30.6667V23.5833M33.7501 23.5833C34.1459 23.2394 34.4625 22.8139 34.6783 22.3361C34.894 21.8582 35.0038 21.3393 35.0001 20.815V14.51C35.0001 12.7083 33.7201 11.1517 31.9384 10.885C30.0506 10.6024 28.1533 10.3872 26.2501 10.24M33.7501 23.5833C33.4268 23.8583 33.0501 24.075 32.6284 24.2167C28.5555 25.5681 24.2914 26.2546 20.0001 26.25C15.5868 26.25 11.3418 25.535 7.37176 24.2167C6.96052 24.0799 6.57964 23.8648 6.25009 23.5833M6.25009 23.5833C5.85433 23.2394 5.53769 22.8139 5.32192 22.3361C5.10615 21.8582 4.99636 21.3393 5.00009 20.815V14.51C5.00009 12.7083 6.28009 11.1517 8.06176 10.885C9.94959 10.6024 11.8469 10.3872 13.7501 10.24M26.2501 10.24V8.75C26.2501 7.75544 25.855 6.80161 25.1517 6.09835C24.4485 5.39509 23.4947 5 22.5001 5H17.5001C16.5055 5 15.5517 5.39509 14.8484 6.09835C14.1452 6.80161 13.7501 7.75544 13.7501 8.75V10.24M26.2501 10.24C22.0896 9.91846 17.9106 9.91846 13.7501 10.24M20.0001 21.25H20.0134V21.2633H20.0001V21.25Z" stroke="black" stroke-width="1.5" stroke-linecap="round" stroke-linejoin="round"/>
</svg>
